# xmcd CD database file
#
# Track frame offsets:
#	150
#	21340
#	36825
#	54647
#	72442
#	89415
#	107765
#	120072
#	137805
#	154870
#	178725
#	195962
#	212602
#	230265
#	249327
#	270412
#	286520
#	304737
#	325562
#
# Disc length: 4548 seconds
#
# Revision: 3
# Processed by: cddbd v1.4PL0 Copyright (c) Steve Scherf et al.
# Submitted via: CDex 1.40Beta8
#
DISCID=f911c213
DTITLE=BLACK ENERGY - CD 2 - THE POWER OF SOUL AND HIP HOP
DYEAR=1900
DGENRE=
TTITLE0=DJ TOMEKK feat. GZA, PRODIGAL SUNN, CURSE and LUXUS CHRIS - Ich lebe für HipHop (Radio Mix)
TTITLE1=Deichkind feat. Nina - Bon Voyage (Single Version)
TTITLE2=Das Bo - Türlich, Türlich (Sicher, Dicker)
TTITLE3=Fünf Sterne Deluxe - Die Leute
TTITLE4=DJ THOMILLA feat. AFROB - Get Up (Radio Edit)
TTITLE5=Q-Tip - Breathe And Stop (Radio Mix)
TTITLE6=Tony Touch feat. Gang Starr - The Piece Maker (Album Version)
TTITLE7=Ol' Dirty Bastard - Got Your Money (Amended Version)
TTITLE8=Nate Dogg feat. Warren G. - Nobody Does It Better
TTITLE9=Beenie Man feat. Wycleff Jean - Love Me Now (Album Version)
TTITLE10=Marc Dorsey - If You Really Wanna Know
TTITLE11=Choclair feat. Guru Of Gang Starr - Bare Witness
TTITLE12=101 feat. Marvelous - NoNo YyeahYeah (Hip Hop Radio Mix)
TTITLE13=Whatever - RepoMan
TTITLE14=Juice - My Love
TTITLE15=Jamelia - Call Me (Album Mix)
TTITLE16=Eternal - What'Cha Gonna Do (Beatmaster Vocal 7")
TTITLE17=Beverly Knight - Greatest Day
TTITLE18=Missy Elliott - She's A Bitch (Clean Version)
EXTD=CD 2
EXTT0=
EXTT1=
EXTT2=
EXTT3=
EXTT4=
EXTT5=
EXTT6=
EXTT7=
EXTT8=
EXTT9=
EXTT10=
EXTT11=
EXTT12=
EXTT13=
EXTT14=
EXTT15=
EXTT16=
EXTT17=
EXTT18=
PLAYORDER=
